<svg width="112" height="112" viewBox="0 0 112 112" fill="none" xmlns="http://www.w3.org/2000/svg">
<path fill-rule="evenodd" clip-rule="evenodd" d="M75.914 39.9026C80.315 36.2308 85.225 34.8338 89.934 35.187C94.957 35.5637 99.605 37.9182 103.077 41.3381C106.548 44.7582 108.933 49.3328 109.315 54.2698C109.7 59.2518 108.032 64.4698 103.634 69.049C103.232 69.471 102.821 69.887 102.401 70.298C82.453 89.948 55.9555 90 55.6844 90H55.6831C55.5476 90 28.966 89.999 8.96651 70.296L8.96221 70.291C8.54931 69.882 8.14271 69.47 7.74221 69.056L7.73901 69.052C3.33901 64.4767 1.66931 59.26 2.05331 54.278C2.43381 49.3418 4.81711 44.7667 8.28761 41.3454C11.7578 37.9243 16.4056 35.5679 21.4295 35.1896C26.1381 34.835 31.0491 36.2303 35.4523 39.9003C35.9258 34.2398 38.3925 29.8343 41.9732 26.8056C45.7921 23.5753 50.7688 22 55.6832 22C60.5977 22 65.5743 23.5753 69.393 26.8056C72.974 29.8347 75.441 34.241 75.914 39.9026ZM56.5964 88.008L56.5955 87.983H56.5971L56.5964 88.008ZM54.7701 88.008L54.7694 87.983H54.771L54.7701 88.008ZM70.67 60.7224C70.124 60.7224 69.935 61.4989 70.283 61.9102C70.899 62.6387 71.27 63.576 71.27 64.5986C71.27 66.919 69.361 68.8 67.006 68.8C64.6505 68.8 62.7411 66.919 62.7411 64.5986C62.7411 64.4745 62.5767 64.4128 62.5024 64.5134C61.8298 65.4235 61.3757 66.4452 61.1891 67.518C61.0841 68.122 60.5857 68.623 59.9594 68.623H59.6135C58.7961 68.623 58.1218 67.9697 58.2424 67.1787C59.0694 61.7577 64.4925 57.826 70.67 57.826C76.847 57.826 82.27 61.7577 83.097 67.1787C83.217 67.9697 82.543 68.623 81.726 68.623C80.908 68.623 80.261 67.9664 80.083 67.1857C79.275 63.6324 75.527 60.7224 70.67 60.7224ZM32.7998 64.5986C32.7998 64.4349 32.5844 64.347 32.483 64.4773C31.764 65.4016 31.2741 66.4484 31.0667 67.5516C30.9443 68.203 30.4062 68.745 29.729 68.745H29.4752C28.6578 68.745 27.9835 68.092 28.104 67.301C28.9306 61.8771 34.3543 57.9483 40.5313 57.9483C46.7082 57.9483 52.1319 61.8771 52.9585 67.301C53.0791 68.092 52.4047 68.745 51.5873 68.745C50.77 68.745 50.1227 68.089 49.9452 67.3081C49.1371 63.7526 45.3892 60.8447 40.5313 60.8447C40.0897 60.8447 39.9281 61.4555 40.2237 61.7764C40.9105 62.5222 41.329 63.5123 41.329 64.5986C41.329 66.919 39.4197 68.8 37.0644 68.8C34.7091 68.8 32.7998 66.919 32.7998 64.5986ZM60.4274 74.731C61.0051 74.165 61.8979 73.89 62.6152 74.273C63.3325 74.657 63.6046 75.547 63.0877 76.167C61.4041 78.184 58.6782 79.463 55.6718 79.463C52.667 79.463 49.9351 78.198 48.2493 76.165C47.7342 75.544 48.0097 74.654 48.7284 74.273C49.4471 73.892 50.3385 74.171 50.9154 74.737C52.0266 75.829 53.7129 76.567 55.6718 76.567C57.6256 76.567 59.3137 75.821 60.4274 74.731Z" fill="white"/>
</svg>
